# xmcd
#
# Track frame offsets: 
#        150
#        24074
#        39913
#        54498
#        65748
#        86532
#        103122
#        122987
#        139541
#        153363
#
# Disc length: 2299 seconds
#
# Revision: 0
# Processed by: cddbd v1.5.2PL0 Copyright (c) Steve Scherf et al.
# Submitted via: ExactAudioCopyFreeDBPlugin 1.0
#
DISCID=7a08f90a
DTITLE=Henry's Funeral Shoe - Donkey Jacket
DYEAR=2011
DGENRE=Blues
TTITLE0=Be Your Own Invention
TTITLE1=Love is a fever
TTITLE2=Bottom To Top
TTITLE3=Anvil And Chains
TTITLE4=Dog Scratched Ear
TTITLE5=Mission And Maintainance
TTITLE6=TRhe Walking Crawl
TTITLE7=Heart On Fire
TTITLE8=Gimme Back My Morphine
TTITLE9=Across The Sky
EXTD=
EXTT0=
EXTT1=
EXTT2=
EXTT3=
EXTT4=
EXTT5=
EXTT6=
EXTT7=
EXTT8=
EXTT9=
PLAYORDER=
